<?xml version="1.0" encoding="UTF-8" standalone="no"?>
<svg
   xmlns:dc="http://purl.org/dc/elements/1.1/"
   xmlns:cc="http://creativecommons.org/ns#"
   xmlns:rdf="http://www.w3.org/1999/02/22-rdf-syntax-ns#"
   xmlns:svg="http://www.w3.org/2000/svg"
   xmlns="http://www.w3.org/2000/svg"
   xmlns:sodipodi="http://sodipodi.sourceforge.net/DTD/sodipodi-0.dtd"
   xmlns:inkscape="http://www.inkscape.org/namespaces/inkscape"
   inkscape:version="1.0 (4035a4fb49, 2020-05-01)"
   sodipodi:docname="favicon.svg"
   id="svg885"
   xml:space="preserve"
   enable-background="new 0 0 100 100"
   viewBox="0 0 100 100"
   y="0px"
   x="0px"
   version="1.1"><metadata
     id="metadata891"><rdf:RDF><cc:Work
         rdf:about=""><dc:format>image/svg+xml</dc:format><dc:type
           rdf:resource="http://purl.org/dc/dcmitype/StillImage" /></cc:Work></rdf:RDF></metadata><defs
     id="defs889" /><sodipodi:namedview
     inkscape:current-layer="svg885"
     inkscape:window-maximized="1"
     inkscape:window-y="-8"
     inkscape:window-x="-8"
     inkscape:cy="50"
     inkscape:cx="50"
     inkscape:zoom="5.67"
     showgrid="false"
     id="namedview887"
     inkscape:window-height="1017"
     inkscape:window-width="1920"
     inkscape:pageshadow="2"
     inkscape:pageopacity="0"
     guidetolerance="10"
     gridtolerance="10"
     objecttolerance="10"
     borderopacity="1"
     bordercolor="#666666"
     pagecolor="#ffffff" /><g
     id="g949"><path
       d="M 86.95,5.004 H 52.395 V 47.606 H 94.902 V 12.947 C 94.901,8.556 91.343,5.004 86.95,5.004 Z"
       id="path875"
       style="fill:#1a1a1a" /><path
       d="M 5.099,13.009 V 47.606 H 47.607 V 5.0039999 H 13.043 c -4.385,0 -7.944,3.613 -7.944,8.0050001 z"
       id="path877"
       style="fill:#1a1a1a" /><path
       d="m 5.099,87.053 c 0,4.392 3.56,7.943 7.951,7.943 H 47.607 V 52.395 H 5.099 Z"
       id="path879"
       style="fill:#1a1a1a" /><path
       d="m 52.395,94.996 h 34.562 c 4.386,0 7.944,-3.552 7.944,-7.943 V 52.395 H 52.395 Z"
       id="path881"
       style="fill:#1a1a1a" /><path
       style="fill:#008080"
       d="M 37.518,23.938 H 28.72 V 15.14 h -4.735 v 8.798 h -8.797 v 4.734 h 8.797 v 8.797 h 4.735 v -8.797 h 8.798 z"
       id="polygon869" /><path
       style="fill:#008080"
       d="m 30.98,73.699 7.596,-7.554 -3.586,-3.586 -7.554,7.546 -7.5,-7.546 -3.593,3.586 7.506,7.554 -7.602,7.555 3.593,3.586 7.596,-7.603 7.554,7.603 3.586,-3.586 z"
       id="polygon867" /><path
       d="m 76.254,80.263 c -0.342,-0.335 -0.731,-0.601 -1.175,-0.799 -0.438,-0.185 -0.909,-0.28 -1.414,-0.28 -0.499,0 -0.978,0.096 -1.435,0.28 -0.458,0.198 -0.854,0.464 -1.195,0.799 -0.335,0.342 -0.608,0.731 -0.82,1.175 -0.204,0.438 -0.307,0.923 -0.307,1.455 0,0.472 0.103,0.936 0.307,1.394 0.212,0.458 0.485,0.854 0.82,1.195 0.341,0.342 0.737,0.615 1.195,0.819 0.457,0.205 0.949,0.308 1.482,0.308 0.498,0 0.97,-0.109 1.413,-0.335 0.444,-0.218 0.827,-0.505 1.148,-0.86 0.32,-0.354 0.587,-0.751 0.799,-1.195 0.205,-0.437 0.308,-0.881 0.308,-1.325 0,-0.532 -0.103,-1.018 -0.308,-1.455 -0.211,-0.445 -0.484,-0.835 -0.818,-1.176 z"
       id="path863"
       style="fill:#008080" /><path
       d="m 71.035,67.176 c 0.341,0.342 0.737,0.601 1.195,0.799 0.457,0.185 0.949,0.287 1.482,0.287 0.498,0 0.97,-0.109 1.413,-0.314 0.444,-0.205 0.827,-0.484 1.148,-0.84 0.32,-0.355 0.587,-0.752 0.799,-1.195 0.205,-0.438 0.308,-0.895 0.308,-1.366 0,-0.533 -0.103,-1.024 -0.308,-1.482 -0.212,-0.458 -0.485,-0.854 -0.819,-1.195 -0.342,-0.342 -0.731,-0.601 -1.175,-0.792 -0.438,-0.191 -0.909,-0.294 -1.414,-0.294 -1.004,0 -1.879,0.362 -2.63,1.086 -0.752,0.724 -1.127,1.612 -1.127,2.678 0,0.499 0.103,0.977 0.307,1.435 0.213,0.455 0.486,0.851 0.821,1.193 z"
       id="path873"
       style="fill:#008080" /><path
       style="fill:#008080"
       d="m 65.611,23.323 h 16.079001 v 5.963 H 65.611 Z"
       id="rect865" /><path
       style="fill:#008080"
       d="m 62.483002,71.355003 h 22.329 v 4.728001 h -22.329 z"
       id="rect871" /></g></svg>
